<svg xmlns="http://www.w3.org/2000/svg" width="25.392" height="25.392" viewBox="0 0 25.392 25.392">
  <path id="account" d="M18.446,22.435c6.873,0,12.446,2.6,12.446,5.808v4.149H6V28.243C6,25.035,11.572,22.435,18.446,22.435Zm10.786,5.808c0-2.29-4.829-4.149-10.786-4.149S7.659,25.953,7.659,28.243v2.489H29.232ZM18.446,7.5a5.808,5.808,0,1,1-5.808,5.808A5.808,5.808,0,0,1,18.446,7.5Zm0,1.659a4.149,4.149,0,1,0,4.149,4.149,4.149,4.149,0,0,0-4.149-4.149Z" transform="translate(-5.75 -7.25)" fill="#3b3026" stroke="#3b3026" stroke-width="0.5"/>
</svg>
