<svg xmlns="http://www.w3.org/2000/svg" width="18.578" height="18.59" viewBox="0 0 18.578 18.59">
  <g id="cart" transform="translate(-0.875 -0.875)">
    <path id="Path_36" data-name="Path 36" d="M6.548,4.14V5.345H18V7.73L16.66,11.973H6.169L4.663,1.125H1.125V2.33H3.613L5.12,13.178H17.544L19.2,7.916V4.14Z" fill="#3b3026" stroke="#3b3026" stroke-width="0.5"/>
    <path id="Path_37" data-name="Path 37" d="M10.354,25.9a2.41,2.41,0,1,0,2.41,2.41,2.413,2.413,0,0,0-2.41-2.41Zm0,3.616a1.205,1.205,0,1,1,1.205-1.205A1.205,1.205,0,0,1,10.354,29.515Z" transform="translate(-3.167 -11.504)" fill="#3b3026" stroke="#3b3026" stroke-width="0.5"/>
    <path id="Path_38" data-name="Path 38" d="M26.1,25.9a2.41,2.41,0,1,0,2.41,2.41A2.413,2.413,0,0,0,26.1,25.9Zm0,3.616a1.205,1.205,0,1,1,1.205-1.205A1.205,1.205,0,0,1,26.1,29.515Z" transform="translate(-10.48 -11.504)" fill="#3b3026" stroke="#3b3026" stroke-width="0.5"/>
  </g>
</svg>
