<svg xmlns="http://www.w3.org/2000/svg" width="17.145" height="10" viewBox="0 0 17.145 10">
  <g id="angle-right" transform="translate(18.796 10.203) rotate(-90)">
    <path id="Path_11" data-name="Path 11" d="M10.2-3.076a.543.543,0,0,0-.172-.395L3.279-10.223l6.753-6.753a.543.543,0,0,0,.172-.395.543.543,0,0,0-.172-.395l-.859-.859a.543.543,0,0,0-.395-.172.543.543,0,0,0-.395.172L.375-10.618a.543.543,0,0,0-.172.395.543.543,0,0,0,.172.395L8.381-1.822a.543.543,0,0,0,.395.172.543.543,0,0,0,.395-.172l.859-.859a.543.543,0,0,0,.172-.395Z" fill="#b58a51"/>
  </g>
</svg>
