<svg id="Layer_2" data-name="Layer 2" xmlns="http://www.w3.org/2000/svg" width="73.522" height="90" viewBox="0 0 73.522 90">
  <g id="Layer_1" data-name="Layer 1">
    <path id="Path_40" data-name="Path 40" d="M34.684,7.984C47.1,25.359,65.905,42.365,65.885,57.225s-15.605,29.6-31.261,29.6h0c-15.715,0-31.29-14.81-31.271-29.67S22.6,26.068,34.684,7.984M34.515,0,29.429,7.585C25.8,12.974,21.716,18.064,17.775,22.954,8.639,34.261,0,44.91,0,57.145a31.7,31.7,0,0,0,10.112,23.2A35.387,35.387,0,0,0,34.575,90c19.109,0,34.635-14.7,34.664-32.764,0-12.894-9.355-24.491-19.288-36.766-3.384-4.2-6.9-8.553-10.142-13.034Z" fill="#fffcf8"/>
    <path id="Path_41" data-name="Path 41" d="M33.758,63.077,19.163,50.049,15.35,54.813,34.593,71.507l.01-.021.146.115L76.277,22.312,71.492,18.52Z" transform="translate(-2.755 -1.153)" fill="#fffcf8"/>
  </g>
</svg>
