<svg id="Layer_2" data-name="Layer 2" xmlns="http://www.w3.org/2000/svg" width="73.091" height="90" viewBox="0 0 73.091 90">
  <g id="Layer_1" data-name="Layer 1" transform="translate(0 0)">
    <path id="Union_1" data-name="Union 1" d="M6.51,90a1.287,1.287,0,0,1-.845-.466,1.729,1.729,0,0,0-.175-.168l-.451-.386.255-.531c.08-.16.138-.305.2-.444a3.947,3.947,0,0,1,.561-1.026,1.493,1.493,0,0,0,.349-1.267,1.921,1.921,0,0,1,0-.968,1.347,1.347,0,0,1,1.1-.947h.218a2.4,2.4,0,0,1,2.068.655,10.221,10.221,0,0,1,1.3,1.9,1.456,1.456,0,0,1,.1,1.194,1.621,1.621,0,0,1-.91.94c-1.238.56-2.38,1.034-3.473,1.456A.729.729,0,0,1,6.523,90Zm1.747-2.818.153-.058.662-.232a6.707,6.707,0,0,0-.43-.729,1.689,1.689,0,0,0-.131-.174A3.641,3.641,0,0,1,8.257,87.182Zm7.018-1.82a8.92,8.92,0,0,1-1.457-.138c-.677-.117-1.4-.211-2.133-.277a2.8,2.8,0,0,1-1.907-.917c-.481-.531-.816-.685-1.318-.6a1.814,1.814,0,0,1-1.726-.881,1.943,1.943,0,0,0-.3-.349,4.1,4.1,0,0,0-.5.109,7.4,7.4,0,0,1-3.756.072A2.708,2.708,0,0,1,0,79.844a7.479,7.479,0,0,1,.692-3.262q.117-.291.218-.59a9.374,9.374,0,0,1,2.57-3.728C5.054,70.8,6.67,69.236,8.286,67.6a5.967,5.967,0,0,0,.641-.837,8.1,8.1,0,0,1,.67-.895,3.307,3.307,0,0,1,1.289-.787,6.185,6.185,0,0,1,.808-.254,3.5,3.5,0,0,0,.866-.306c1.827-1.063,3.713-2.22,5.759-3.531a10.435,10.435,0,0,0,1.631-1.347,3.718,3.718,0,0,1,2.067-1.128,2.006,2.006,0,0,0,1.42-.83,5.013,5.013,0,0,1,.772-.83l.189-.175a6.552,6.552,0,0,0,2.1-4.259,8.266,8.266,0,0,1,.3-1.652A1.96,1.96,0,0,1,28.584,49.4a1.618,1.618,0,0,0,.619-.189,5.044,5.044,0,0,0,1.74-3.014,5.383,5.383,0,0,0,0-.822v-.335a2.228,2.228,0,0,1,1.587-2.308c.306-.123.561-.24.9-.408s.677-.328,1.026-.473a2.073,2.073,0,0,1,1.514-.16l.372-.175v.422a1.778,1.778,0,0,1,.4.874.268.268,0,0,1,.058.2,1.134,1.134,0,0,1,.044.473v.305c-.014.023.029.1.247.212a2.008,2.008,0,0,1,1.027,1.915c.007.684.1.742.219.728s.247-.174.335-.269a2.9,2.9,0,0,1,.349-.379c.2-.182.4-.349.6-.524s.328-.269.6-.524.539-.524.8-.793a2.073,2.073,0,0,1,1.456-.728,1.95,1.95,0,0,1,1.419.655,11.419,11.419,0,0,1,1.078,1.194,2.258,2.258,0,0,1-.073,2.985A1.544,1.544,0,0,0,44.68,50.3a1.936,1.936,0,0,1-.436,2.453l-.626.67c-.939,1-1.907,2.023-2.788,3.072a15.04,15.04,0,0,0-1.507,2.285,5.487,5.487,0,0,1-2.185,2.061l-.291.16a4.863,4.863,0,0,0-.6.364.728.728,0,0,0-.32.67.633.633,0,0,0,.48.466,2.286,2.286,0,0,1,1.638,2.548,1.711,1.711,0,0,1-.91,1.347,2.911,2.911,0,0,1-2.548.153,4.083,4.083,0,0,0-3.319.066,7.4,7.4,0,0,0-3.6,2.548,2.612,2.612,0,0,0-.59,1.689,5.609,5.609,0,0,1-.575,2.373c-.408.925-.859,1.842-1.3,2.73-.262.495-.5.975-.728,1.456a.455.455,0,0,0-.051.182,2.678,2.678,0,0,1-1.631,2.737,9.957,9.957,0,0,0-3.516,3.1,4.69,4.69,0,0,1-3.793,1.933C15.412,85.366,15.343,85.365,15.276,85.362Zm-6.2-3.9a2.571,2.571,0,0,1,1.8.787c.081.073.153.145.226.225a3.363,3.363,0,0,0,.335.313.729.729,0,0,0,.255.124c.786.124,1.573.232,2.359.335l.379.05c1.58.219,2.512-.05,3.137-.888a13.015,13.015,0,0,1,4.485-3.931.727.727,0,0,0,.422-.728,2.533,2.533,0,0,1,.182-1.077c.626-1.34,1.267-2.68,1.915-3.983a3.546,3.546,0,0,0,.561-1.959,3.643,3.643,0,0,1,.786-2.643,9.421,9.421,0,0,1,4.7-3.385,6.26,6.26,0,0,1,4.761,0,2.534,2.534,0,0,0,.655-.058.455.455,0,0,0,0-.095l-.415-.2a2.814,2.814,0,0,1-1.66-2.133,2.482,2.482,0,0,1,.852-2.272,5.713,5.713,0,0,1,1.077-.677,3.727,3.727,0,0,0,1.849-1.755,6.677,6.677,0,0,1,1.005-1.6c.495-.59,1.019-1.165,1.521-1.718l.655-.728.539-.611c.4-.452.794-.9,1.216-1.339.262-.277.262-.277.138-.554a5.455,5.455,0,0,1-.379-1.231,3.012,3.012,0,0,1,.728-2.409c.43-.532.43-.6-.138-1.048a4.308,4.308,0,0,0-.364-.371l-.269-.269c-.328.335-.691.655-1.056.976-.138.124-.284.24-.429.356a5.743,5.743,0,0,0-.459.386c-.117.109-.233.24-.343.364s-.211.24-.32.349a2.184,2.184,0,0,1-2.184.575,2.121,2.121,0,0,1-1.551-1.813v-.19a5.872,5.872,0,0,1-.058-.728c0-.08,0-.124-.189-.225a1.8,1.8,0,0,1-1.063-1.646c-.444.2-.874.4-1.3.583-.568.2-.561.262-.5.729a5.24,5.24,0,0,1,0,1.587,7.325,7.325,0,0,1-2.184,3.705,2.474,2.474,0,0,1-1.514.728c-.481.022-.546.153-.6.51l-.043.255a4.474,4.474,0,0,0-.1.611,8.231,8.231,0,0,1-2.38,5.1c-.16.175-.335.342-.517.51a5.113,5.113,0,0,0-.561.575,3.836,3.836,0,0,1-2.5,1.5,2.125,2.125,0,0,0-1.107.6,18.322,18.322,0,0,1-2.249,1.812c-.976.634-1.98,1.245-2.956,1.835L14.38,65.8a7.419,7.419,0,0,1-3.028,1.216.5.5,0,0,0-.145.066,17.819,17.819,0,0,1-3.444,3.887c-.393.386-.873.816-1.172,1.114s-.611.59-.917.881A20.541,20.541,0,0,0,4.027,74.6,9.346,9.346,0,0,0,2.04,79.355a1.049,1.049,0,0,0,.146.823,1.454,1.454,0,0,0,1.07.342,10.75,10.75,0,0,0,2.366-.211,2.35,2.35,0,0,1,2.767.983c.116.168.167.168.342.168.058-.006.115-.008.173-.008S9.016,81.454,9.073,81.459ZM48.9,50.213a2.666,2.666,0,0,0-1.675-1.165,1.616,1.616,0,0,1-1.252-1.187,1.552,1.552,0,0,1,.641-1.507A8.974,8.974,0,0,0,48.6,44.083a3.757,3.757,0,0,0,.626-3.138,1.836,1.836,0,0,0-1.456-1.267l-.335-.08a4.37,4.37,0,0,1-1-.292,5.611,5.611,0,0,1-1.456-.924,4.081,4.081,0,0,0-2.118-1.216,2.622,2.622,0,0,1-2.185-2.781,2.273,2.273,0,0,1,.9-1.354,11.878,11.878,0,0,1,4.172-1.951,1.071,1.071,0,0,0,.866-1.034c.044-.3.117-.6.189-.9l.094-.422a7.945,7.945,0,0,1,.655-2.431,8.035,8.035,0,0,0,.5-1.544,4.369,4.369,0,0,0-.182-2.162,24.861,24.861,0,0,0-2.789-6.079q-.393-.611-.764-1.223a20.923,20.923,0,0,0-2.046-2.913,4.51,4.51,0,0,1-.51-.728A17.621,17.621,0,0,0,38.711,7.63,2.411,2.411,0,0,1,37.983,5.4a3.188,3.188,0,0,0-.415-1.624,9.2,9.2,0,0,0-.779-1.252c-.182-.255-.364-.517-.531-.779a1.445,1.445,0,0,1-.2-.67v-.1L35.864,0l1,.065h.124a1.832,1.832,0,0,1,.67.1,10.685,10.685,0,0,0,1.609.575A4.549,4.549,0,0,1,41.448,2.92a1.31,1.31,0,0,0,.9.728c.626.182,1.245.379,1.871.568l.619.189a5.984,5.984,0,0,1,3.713,3.05,7.77,7.77,0,0,1,1.114,4.973.838.838,0,0,0,.292.786,3.305,3.305,0,0,1,.8,2.577c-.014.35-.029.7-.073,1.041a3.285,3.285,0,0,1,2.335,2.12,6.876,6.876,0,0,0-.064-.759,9.294,9.294,0,0,0-.415-1.5l-.109-.335a1.047,1.047,0,0,1,.1-1,.9.9,0,0,1,.226-.218,2.442,2.442,0,0,1-1.012-1.974v-.232l.233-.342c.145-.219.349-.517.575-.809a1.166,1.166,0,0,1,1.26-.269A3.377,3.377,0,0,1,55.5,14.277a1.536,1.536,0,0,1-.728.983,1.99,1.99,0,0,1,.728.728l.139.248a8.886,8.886,0,0,1,1.63,5.1,4.873,4.873,0,0,0,0,.648A1.253,1.253,0,0,0,58,23.145c.611.305,1.208.64,1.784.961.429.262.852.5,1.288.728a3.885,3.885,0,0,0,2.01.466,10.392,10.392,0,0,1,1.544.081.844.844,0,0,0,.771-.226A6.16,6.16,0,0,1,71.414,23.7a2,2,0,0,1,1.638,1.339,1.709,1.709,0,0,1-.59,1.689,4.294,4.294,0,0,0-1,2.082c-.087.306-.168.619-.276.924a1,1,0,0,0-.1.306,5.826,5.826,0,0,1-.371.953A3,3,0,0,1,69.834,32a3.352,3.352,0,0,0-1.624,2.235,1.456,1.456,0,0,1-1.194,1.084,5.879,5.879,0,0,1-1.136,0H65.2a3.2,3.2,0,0,0-2.7.888,1.151,1.151,0,0,0-.553,1.354,3.85,3.85,0,0,1-.874,3.764c-1.114,1.3-2.271,2.6-3.392,3.844l-1.143,1.281c-.488.539-.976,1.071-1.456,1.6l-.641.728a7.1,7.1,0,0,1-3.269,2.111,3.165,3.165,0,0,1-.939.189A1.491,1.491,0,0,1,48.9,50.213ZM40.072,5.548c-.044.393.044.56.4.983.161.2.335.386.5.582A16.877,16.877,0,0,1,42.7,9.363a26.665,26.665,0,0,0,1.711,2.4A17.289,17.289,0,0,1,47,15.879a.827.827,0,0,0,.109.138,3.132,3.132,0,0,1,.219.3l.248.393a8.178,8.178,0,0,1,.67,1.209c.641,1.573,1.194,3,1.681,4.369a5.351,5.351,0,0,1-.371,4.477,6.046,6.046,0,0,0-.539,1.922,9.727,9.727,0,0,1-.378,1.682,2.832,2.832,0,0,1-2.141,2.577A11.555,11.555,0,0,0,43.115,34.4c-.08.058-.167.109-.254.161l-.1.065c.16.488.218.56.459.56A4.416,4.416,0,0,1,46,36.548a3.9,3.9,0,0,0,2.272,1.165,3.786,3.786,0,0,1,3.167,3.873,7.528,7.528,0,0,1-2.913,5.766,3.064,3.064,0,0,1,1.929,1.456.534.534,0,0,0,.073.109l.305-.138a6.522,6.522,0,0,0,1.493-.8,17.6,17.6,0,0,0,1.74-1.791c.167-.2.335-.386.509-.575,1.5-1.667,3.2-3.553,4.82-5.4a2.046,2.046,0,0,0,.51-2.126,2.708,2.708,0,0,1,.633-2.73,5.637,5.637,0,0,1,5.286-1.922,2.588,2.588,0,0,0,.43,0,4.973,4.973,0,0,1,2.016-2.752,2.036,2.036,0,0,0,.779-.982c.124-.393.226-.728.335-1.122A7.187,7.187,0,0,1,70.7,25.635a7.247,7.247,0,0,0-1.456-.153,3.741,3.741,0,0,0-2.57,1.23,2.488,2.488,0,0,1-1.871.677H63.369a6.71,6.71,0,0,1-3.226-.728c-1.157-.611-2.359-1.266-3.56-1.951a2.751,2.751,0,0,1-1.354-2.031,6.49,6.49,0,0,1-.1-1.456,3.82,3.82,0,0,0-.1-1.157,2.014,2.014,0,0,1-.066.269,1.864,1.864,0,0,1-1.456,1.456,1.937,1.937,0,0,1-1.922-.91,5.019,5.019,0,0,1-.626-1.187,1.339,1.339,0,0,0-1.041-.925A1.581,1.581,0,0,1,48.553,16.9v-.241a8.753,8.753,0,0,0,.058-1.368,1.017,1.017,0,0,0-.16-.561,2.991,2.991,0,0,1-.859-2.417A6.384,6.384,0,0,0,46.9,8.824,4.551,4.551,0,0,0,43.713,6.24l-.678-.2a5.558,5.558,0,0,0-.567-.168,4.839,4.839,0,0,1-2.424-1.3A2.76,2.76,0,0,1,40.072,5.548Zm14.779,8.663a.084.084,0,0,0,0-.036Zm-1.384-.371a.8.8,0,0,0,.4.255v-.189a2.5,2.5,0,0,0-.146-.27h-.058A.582.582,0,0,0,53.468,13.84Z" transform="translate(0)" fill="#fffcf8"/>
  </g>
</svg>
