<svg id="Layer_2" data-name="Layer 2" xmlns="http://www.w3.org/2000/svg" width="85.118" height="90" viewBox="0 0 85.118 90">
  <g id="Layer_1" data-name="Layer 1" transform="translate(0)">
    <path id="Path_39" data-name="Path 39" d="M82.89,29.54l-.12.809Q82.449,33.679,82.09,37l-.607,5.9c-.239,2.281-.469,4.6-.717,6.842v.377a40.438,40.438,0,0,1-.57,4.028,11.956,11.956,0,0,1-2.759,5.215l-3.881,4.6c-3.366,4.093-6.842,8.213-10.346,12.223a8.1,8.1,0,0,0-2.216,6c.064,1.288,0,2.621,0,3.918v.92a2.823,2.823,0,0,1-.092.782,2.143,2.143,0,0,1-.8.083H54.8l-9.739.083a5.351,5.351,0,0,1-.552,0h0a1.683,1.683,0,0,1-.1-.579c-.074-1.177-.156-2.364-.239-3.541-.184-2.639-.377-5.362-.441-8.029a18.3,18.3,0,0,1,4.9-13.179,37.909,37.909,0,0,1,4.6-4.231A31.14,31.14,0,0,0,58.454,52.7l2.594-3.357q2.456-3.2,4.92-6.383a2.7,2.7,0,0,1,3.532-.469,2.759,2.759,0,0,1,.92,3.614c-.681,1.177-1.407,2.345-2.124,3.5L61.618,60.5c-.074.12-.147.23-.212.359a2.023,2.023,0,0,0,.681,2.759,1.95,1.95,0,0,0,2.685-.717l1.6-2.345c1.444-2.088,2.934-4.258,4.286-6.438,1.471-2.391,2.814-4.911,4.1-7.357l.653-1.232a11.036,11.036,0,0,0,1.168-4.884,75.993,75.993,0,0,1,1.895-15.064,4.525,4.525,0,0,1,.92-1.9,1.784,1.784,0,0,1,2.1-.4,2.244,2.244,0,0,1,1.628,2.051,35.962,35.962,0,0,1-.258,4.212M41.6,77.621c0,.533-.074,1.076-.092,1.619-.055,1.435-.138,2.869-.221,4.313-.064,1.14-.129,2.272-.184,3.412a2.235,2.235,0,0,1-.129.92,2.014,2.014,0,0,1-.864.092H34.947l-4.111-.055h-5.49a1.453,1.453,0,0,1-.7-.092,1.407,1.407,0,0,1-.12-.7c-.092-2.538-.184-5.077-.3-7.606a2.492,2.492,0,0,0-.579-1.389l-.966-1.15Q15.422,68.259,8.12,59.6a15.414,15.414,0,0,1-3.679-9.2c-.156-2.272-.414-4.552-.653-6.769-.12-1.03-.23-2.051-.34-3.081l-1.1-10.815C2.216,28.5,2.078,27.269,2,26.055a2.759,2.759,0,0,1,.754-2.143,2.4,2.4,0,0,1,1.766-.754h0a1.674,1.674,0,0,1,1.839,1.168A28.51,28.51,0,0,1,7.54,29.3C7.8,31.416,8,33.55,8.2,35.684c.175,1.922.359,3.835.579,5.757a13.961,13.961,0,0,0,1.094,4.074,103.538,103.538,0,0,0,10.116,16.6c.147.221.3.432.451.662a2.032,2.032,0,0,0,2.943.828c.368-.239,1.5-1.159.4-2.961l-5.159-8.387q-1.839-2.98-3.679-5.969a2.759,2.759,0,0,1,1.738-4.2,2.639,2.639,0,0,1,2.759,1.021l2.17,2.759c2.548,3.3,5.178,6.723,7.845,10.025a17.28,17.28,0,0,0,2.925,2.649l.533.4c5.077,3.982,7.946,8.636,8.765,14.237a22.072,22.072,0,0,1,0,4.414M29.723,30.736l-.432-.248-.92,1.554.432.248a36.843,36.843,0,0,1,5.757,4.083,38.185,38.185,0,0,1,7,8.176c-2.658-.092-7.689-.745-11.036-4.083-3.679-3.679-4.111-9.7-4.139-11.772,2.069,0,8.056.441,11.763,4.148,2.667,2.667,3.614,6.438,3.936,9.289a39.9,39.9,0,0,0-6.355-7.118A39.776,39.776,0,0,0,29.7,30.736M44.65,37.063a38.231,38.231,0,0,1,7-8.185A36.888,36.888,0,0,1,57.4,24.831l.432-.248-.9-1.591-.432.248a39.234,39.234,0,0,0-6.024,4.277,40.116,40.116,0,0,0-6.327,7.137c.322-2.759,1.269-6.613,3.945-9.3,3.679-3.679,9.7-4.12,11.772-4.148,0,2.336-.5,8.121-4.148,11.772-3.3,3.3-8.277,3.973-11.036,4.083m-2.5-30.819V23.912c-1.8-2.051-4.47-5.849-4.47-10.208,0-5.215,3.955-9.767,5.389-11.248C44.53,3.936,48.485,8.489,48.485,13.7c0,4.35-2.695,8.158-4.488,10.208V6.245Zm40.08,15.175a3.743,3.743,0,0,0-4.322.92,6.723,6.723,0,0,0-1.4,2.759,78.586,78.586,0,0,0-1.95,15.451,9.27,9.27,0,0,1-.92,4.037l-.671,1.269c-1.26,2.4-2.612,4.893-4.019,7.238-1.334,2.161-2.759,4.3-4.24,6.383l-1.278,1.766,6.53-10.613c.727-1.177,1.462-2.354,2.161-3.55a4.746,4.746,0,0,0-7.771-5.371L59.447,48.09,56.891,51.5c-.625.819-1.251,1.619-1.895,2.382a16.554,16.554,0,0,1-3.918-.763c-2.575-.92-5.261-.92-7.109-1.315V38.866c2.6,0,8.847-.506,12.968-4.6,5-5.021,4.681-13.115,4.681-13.988v-.8l-.791-.046H60.1c-2.014,0-8.912.34-13.253,4.672a13.961,13.961,0,0,0-2.759,4.111v-1.7C45.45,25.227,50.37,20.132,50.37,13.7,50.25,6.438,43.932.763,43.666.524L43.068,0l-.6.524c-.671.607-6.6,6.107-6.6,13.179,0,6.438,4.92,11.524,6.291,12.811v9.2a14.09,14.09,0,0,0-2.814-4.12C35,27.259,28.1,26.919,26.1,26.919h-.736l-.791.046v.791c0,.359-.478,8.847,4.663,13.979,4.111,4.12,10.356,4.6,12.968,4.6v5.159a38.507,38.507,0,0,0-7.716.929c-1.048.276-3.044.837-4.405,1.223-2.373-2.971-4.718-6-7-8.948l-2.17-2.759a4.6,4.6,0,0,0-4.792-1.729,4.746,4.746,0,0,0-2.952,7.174q1.839,2.989,3.679,5.969l4.865,7.928c-.055-.092-.12-.175-.184-.267a101.358,101.358,0,0,1-9.914-16.334,11.956,11.956,0,0,1-.92-3.486c-.221-1.895-.4-3.8-.589-5.7-.2-2.152-.4-4.3-.662-6.438a30.35,30.35,0,0,0-1.251-5.325,3.679,3.679,0,0,0-3.679-2.566h0A4.4,4.4,0,0,0,1.3,22.551,4.819,4.819,0,0,0,0,26.165c.083,1.26.221,2.52.349,3.78L1.471,40.779c.1,1.03.221,2.06.331,3.1.248,2.189.5,4.46.653,6.686A17.364,17.364,0,0,0,6.6,60.883q7.3,8.645,14.549,17.364l.966,1.15a.919.919,0,0,1,.11.2c.129,2.529.221,5.058.313,7.578.064,1.839.92,2.713,2.759,2.759s3.679,0,5.518,0l9.27.064h0c1.38,0,2.189-.322,2.612-1.14A2.274,2.274,0,0,0,45.036,90h7.523l.984-.064h6.438c2.032,0,2.814-.763,2.888-2.759v-.92a33.754,33.754,0,0,0,0-4.093,6.07,6.07,0,0,1,1.72-4.6c3.633-4.093,7.146-8.259,10.484-12.269l3.881-4.6a13.97,13.97,0,0,0,3.182-6.1c.294-1.4.451-2.833.607-4.221v-.368c.248-2.29.487-4.6.717-6.861l.616-5.9c.23-2.216.469-4.433.681-6.658l.083-.809a41.45,41.45,0,0,0,.267-4.442,4.175,4.175,0,0,0-2.888-3.881" transform="translate(0.011)" fill="#fffcf8"/>
  </g>
</svg>
