<svg id="Layer_2" data-name="Layer 2" xmlns="http://www.w3.org/2000/svg" width="71.963" height="83.183" viewBox="0 0 71.963 83.183">
  <g id="Layer_1" data-name="Layer 1">
    <path id="Path_46" data-name="Path 46" d="M35.982,0,0,20.793V45.858l11.238,6.46L11.175,27.2,36.124,12.7l25.02,14.378.071,24.975,10.748-6.193V20.793Z" fill="#fffcf8"/>
    <path id="Path_47" data-name="Path 47" d="M36.035,89.346l35.928-20.7V55.9L36.035,76.6,0,55.9V68.65Z" transform="translate(0 -6.163)" fill="#fffcf8"/>
    <path id="Path_48" data-name="Path 48" d="M73.661,82.194v-3.3H72.54V78.27h2.954v.623h-1.13v3.3Z" transform="translate(-7.997 -8.629)" fill="#fffcf8"/>
    <path id="Path_49" data-name="Path 49" d="M78.222,81.251l-.676-1.2a3.836,3.836,0,0,1-.294-.658h0a4.234,4.234,0,0,1,0,.694v2.109H76.54V78.27h.783l.89,1.646a3.4,3.4,0,0,1,.222.507h0a2.313,2.313,0,0,1,.231-.507l.89-1.646h.756v3.924h-.694V80.085a5.274,5.274,0,0,1,0-.694h0a3.113,3.113,0,0,1-.294.658l-.676,1.2Z" transform="translate(-8.438 -8.629)" fill="#fffcf8"/>
    <path id="Path_50" data-name="Path 50" d="M30.577,46.9c0,3.328-2.011,5.125-5.339,5.125S19.9,50.248,19.9,46.9V39.66h2.909v7.118a2.189,2.189,0,0,0,2.4,2.447,2.2,2.2,0,0,0,2.411-2.447V39.66h2.954Z" transform="translate(-2.194 -4.372)" fill="#fffcf8"/>
    <path id="Path_51" data-name="Path 51" d="M47.979,51.805H45.087v-8.31l-2.429,7.162H39.571l-2.42-7.136v8.284h-2.9V39.66h4.1l2.767,7.714,2.749-7.714h4.111Z" transform="translate(-3.776 -4.372)" fill="#fffcf8"/>
    <path id="Path_52" data-name="Path 52" d="M60.784,47.161H54.921v4.645h-2.9V39.66H61.2v2.616H54.921v2.269h5.863Z" transform="translate(-5.735 -4.372)" fill="#fffcf8"/>
  </g>
</svg>
