<svg id="Layer_2" data-name="Layer 2" xmlns="http://www.w3.org/2000/svg" width="80.447" height="83.509" viewBox="0 0 80.447 83.509">
  <g id="Layer_1" data-name="Layer 1">
    <path id="Path_42" data-name="Path 42" d="M80.064,83.829H.91V75.955H2.535v-.61H1L2.7,43.672H78.758l1.687,31.673H79.252v.61h.813ZM3.327,81.4h74.32V78.373h-.813V72.9h1.029l-1.4-26.785H4.993L3.564,72.917H4.952v5.456H3.327Zm72.459-1.86H6V72.917H75.786ZM8.418,77.112H73.369V75.345H8.418ZM40.724,58.3C34,58.3,29.3,55.814,29.3,52.249V50.317H52.15v1.932C52.15,55.814,47.46,58.3,40.724,58.3Zm-8.866-5.549c.586,1.581,3.888,3.1,8.917,3.1s8.331-1.54,8.917-3.1ZM80.507,41.843H1L2.71,18.24H78.748ZM3.6,39.414H77.853L76.5,20.679H4.952Zm37.119-8.153C34,31.261,29.3,28.771,29.3,25.205V23.273H52.15v1.932c0,1.974-1.4,3.669-3.949,4.754A19.941,19.941,0,0,1,40.724,31.261ZM31.858,25.67c.586,1.591,3.888,3.1,8.917,3.1a17.277,17.277,0,0,0,6.51-1.033,4.048,4.048,0,0,0,2.366-2.067Zm48.258-9.3H.91V4.92h79.2ZM3.327,13.983h74.32V7.348H3.327Z" transform="translate(-0.059 -0.32)" fill="#fffcf8"/>
    <rect id="Rectangle_100" data-name="Rectangle 100" width="80.176" height="2.562" fill="#fffcf8"/>
  </g>
</svg>
