<svg xmlns="http://www.w3.org/2000/svg" width="30.413" height="30.411" viewBox="0 0 30.413 30.411">
  <g id="search" transform="translate(0.25 0.25)">
    <path id="Path_29" data-name="Path 29" d="M23.388,23.388a1.885,1.885,0,0,1,2.668,0l7.257,7.257a1.885,1.885,0,1,1-2.665,2.668l-7.257-7.257a1.885,1.885,0,0,1,0-2.668Z" transform="translate(-3.704 -3.703)" fill="#3b3026"/>
    <path id="Path_30" data-name="Path 30" d="M12.253,22.621A10.368,10.368,0,1,0,1.885,12.253,10.368,10.368,0,0,0,12.253,22.621ZM24.507,12.253A12.253,12.253,0,1,1,12.253,0,12.253,12.253,0,0,1,24.507,12.253Z" fill="#3b3026" stroke="#3b3026" stroke-width="0.5"/>
  </g>
</svg>
