<svg xmlns="http://www.w3.org/2000/svg" width="30" height="25.696" viewBox="0 0 30 25.696">
  <path id="store" d="M32.226,11.652,30.085,5.228A1.071,1.071,0,0,0,29.014,4.5H5.461a1.071,1.071,0,0,0-1.071.728L2.249,11.652a1.274,1.274,0,0,0,0,.343v6.424A1.071,1.071,0,0,0,3.32,19.488H4.391V30.194H6.532V19.488h6.424V30.194h17.13V19.488h1.071a1.071,1.071,0,0,0,1.071-1.071V11.994a1.274,1.274,0,0,0,0-.343Zm-4.282,16.4H15.1V19.488H27.944Zm2.141-10.706H25.8V13.065H23.661v4.282H18.308V13.065H16.167v4.282H10.814V13.065H8.673v4.282H4.391V12.165L6.232,6.641H28.244l1.841,5.524Z" transform="translate(-2.238 -4.498)" fill="#3b3026"/>
</svg>
